<?xml version="1.0" standalone="no"?>
<!DOCTYPE svg PUBLIC "-//W3C//DTD SVG 20010904//EN"
 "http://www.w3.org/TR/2001/REC-SVG-20010904/DTD/svg10.dtd">
<svg version="1.0" xmlns="http://www.w3.org/2000/svg"
 width="526.000000pt" height="526.000000pt" viewBox="0 0 526.000000 526.000000"
 preserveAspectRatio="xMidYMid meet">
<metadata>
Created by potrace 1.14, written by Peter Selinger 2001-2017
</metadata>
<g transform="translate(0.000000,526.000000) scale(0.100000,-0.100000)"
fill="#000000" stroke="none">
<path d="M1145 5229 c-33 -4 -80 -12 -105 -19 -25 -6 -54 -13 -64 -15 -43 -10
-125 -40 -186 -68 -65 -30 -201 -105 -210 -116 -3 -4 -25 -21 -50 -39 -126
-91 -269 -261 -349 -414 -63 -122 -100 -228 -137 -398 -5 -19 -9 -685 -11
-1480 -3 -1498 -3 -1503 36 -1674 14 -61 71 -207 105 -272 116 -217 300 -410
507 -528 74 -43 220 -100 329 -130 l115 -31 1470 -2 c923 -1 1492 2 1530 8
221 36 433 125 603 254 109 83 257 249 319 358 62 109 131 278 148 362 34 171
34 162 31 1640 -1 798 -5 1466 -10 1485 -4 19 -9 44 -11 55 -16 100 -80 272
-141 382 -85 152 -224 307 -371 412 -110 78 -307 173 -408 196 -11 2 -38 9
-60 14 -22 5 -56 13 -75 17 -47 11 -2928 14 -3005 3z"/>
</g>
</svg>
